<?xml version="1.0" encoding="UTF-8" standalone="no"?>
<!DOCTYPE svg PUBLIC "-//W3C//DTD SVG 1.1//EN" "http://www.w3.org/Graphics/SVG/1.1/DTD/svg11.dtd">
<svg width="100%" height="100%" viewBox="0 0 67 55" version="1.1" xmlns="http://www.w3.org/2000/svg" xmlns:xlink="http://www.w3.org/1999/xlink" xml:space="preserve" xmlns:serif="http://www.serif.com/" style="fill-rule:evenodd;clip-rule:evenodd;stroke-linejoin:round;stroke-miterlimit:1.5;">
    <g transform="matrix(1,0,0,1,-771,-425)">
        <g transform="matrix(0.151431,-0.988468,0.988468,0.151431,469.391,955.856)">
            <g transform="matrix(0.0607282,-0.998154,0.998154,0.0607282,304.129,915.647)">
                <g transform="matrix(0.15997,0.15997,-0.772468,0.772468,734.083,-68.4637)">
                    <path d="M697.518,183.889C697.518,183.445 695.777,183.084 693.632,183.084L623.831,183.084C621.687,183.084 619.946,183.445 619.946,183.889L619.946,185.498C619.946,185.943 621.687,186.303 623.831,186.303L693.632,186.303C695.777,186.303 697.518,185.943 697.518,185.498L697.518,183.889Z"/>
                </g>
                <g transform="matrix(0.159313,-0.154321,0.760076,0.784665,451.507,146.013)">
                    <path d="M697.518,183.889C697.518,183.445 695.742,183.084 693.555,183.084L623.909,183.084C621.722,183.084 619.946,183.445 619.946,183.889L619.946,185.498C619.946,185.943 621.722,186.303 623.909,186.303L693.555,186.303C695.742,186.303 697.518,185.943 697.518,185.498L697.518,183.889Z"/>
                </g>
            </g>
            <g transform="matrix(1,0,0,1,-1.22427,16.242)">
                <path d="M532.249,212.574C531.576,226.15 532.849,247.201 542.826,256.49C549.506,262.709 558.099,269.202 579.981,266.249" style="fill:none;stroke:black;stroke-width:3px;"/>
            </g>
        </g>
    </g>
</svg>
