<?xml version="1.0" encoding="UTF-8" standalone="no"?>
<!DOCTYPE svg PUBLIC "-//W3C//DTD SVG 1.1//EN" "http://www.w3.org/Graphics/SVG/1.1/DTD/svg11.dtd">
<svg width="100%" height="100%" viewBox="0 0 60 41" version="1.1" xmlns="http://www.w3.org/2000/svg" xmlns:xlink="http://www.w3.org/1999/xlink" xml:space="preserve" xmlns:serif="http://www.serif.com/" style="fill-rule:evenodd;clip-rule:evenodd;stroke-linejoin:round;stroke-miterlimit:1.5;">
    <g transform="matrix(1,0,0,1,-518,-426)">
        <g transform="matrix(1,0,0,1,0,202.284)">
            <g transform="matrix(0.0339763,-0.999423,0.999423,0.0339763,322.535,921.464)">
                <g transform="matrix(0.15997,0.15997,-0.772468,0.772468,734.083,-68.4637)">
                    <path d="M697.518,183.889C697.518,183.445 695.777,183.084 693.632,183.084L623.831,183.084C621.687,183.084 619.946,183.445 619.946,183.889L619.946,185.498C619.946,185.943 621.687,186.303 623.831,186.303L693.632,186.303C695.777,186.303 697.518,185.943 697.518,185.498L697.518,183.889Z"/>
                </g>
                <g transform="matrix(0.156837,-0.156837,0.772468,0.772468,450.928,150.032)">
                    <path d="M697.518,183.889C697.518,183.445 695.742,183.084 693.555,183.084L623.909,183.084C621.722,183.084 619.946,183.445 619.946,183.889L619.946,185.498C619.946,185.943 621.722,186.303 623.909,186.303L693.555,186.303C695.742,186.303 697.518,185.943 697.518,185.498L697.518,183.889Z"/>
                </g>
            </g>
            <g transform="matrix(1,0,0,1,-1.22427,16.242)">
                <path d="M532.053,212.404C531.381,225.979 532.706,234.84 539.619,241.142C543.706,244.867 555.482,248.242 577.365,245.29" style="fill:none;stroke:black;stroke-width:3px;"/>
            </g>
        </g>
    </g>
</svg>
